<svg xmlns="http://www.w3.org/2000/svg" viewBox="0 0 420 100" role="img" aria-labelledby="title desc">
  <title id="title">Salvio Gonçalves — Terapeuta</title>
  <desc id="desc">Símbolo de círculo aberto com ondas formando um S, acompanhado do nome Salvio Gonçalves e da palavra Terapeuta</desc>
  <g transform="translate(8 8)">
    <path d="M30 30 A36 36 0 0 1 70 30" fill="none" stroke="#4E6351" stroke-width="7" stroke-linecap="round"/>
    <path d="M30 70 A36 36 0 0 0 70 70" fill="none" stroke="#4E6351" stroke-width="7" stroke-linecap="round"/>
    <path d="M34 37 C48 25 67 32 66 43 C65 53 48 48 38 57 C28 66 45 77 64 64" fill="none" stroke="#8FA396" stroke-width="6" stroke-linecap="round"/>
    <path d="M35 39 C48 29 63 35 62 43 C61 50 48 49 39 57 C30 65 45 72 61 64" fill="none" stroke="#B97A5A" stroke-width="3.5" stroke-linecap="round" opacity=".95"/>
    <circle cx="50" cy="79" r="4" fill="#B97A5A"/>
  </g>
  <text x="104" y="52" fill="#4E6351" font-family="Georgia, 'Times New Roman', serif" font-size="31" font-weight="600" letter-spacing="-.5">Salvio Gonçalves</text>
  <text x="106" y="77" fill="#B97A5A" font-family="Arial, Helvetica, sans-serif" font-size="14" letter-spacing="2.4">TERAPEUTA</text>
</svg>
